<svg width="50" height="45" viewBox="0 0 50 45" fill="none" xmlns="http://www.w3.org/2000/svg">
<path d="M30.9046 18.2521C31.119 17.8888 31.3457 17.5632 31.516 17.206C32.0276 16.1323 32.3999 15.0042 32.5334 13.7975C32.6604 12.6499 32.578 11.5157 32.3131 10.3965C32.1479 9.69805 31.9486 9.01365 31.6097 8.38673C30.9395 7.14718 29.9648 6.34473 28.6693 6.0278C28.3135 5.9408 27.9416 5.8947 27.5769 5.89297C26.8419 5.8893 26.1069 5.92827 25.3719 5.95122C24.7968 5.96935 24.2219 5.98787 23.647 6.00986C22.4618 6.05519 21.2767 6.11499 20.0911 6.1472C17.9545 6.20527 16.209 5.34225 14.9052 3.49256C14.4507 2.8479 14.1349 2.1228 13.9762 1.32498C13.9287 1.08559 13.908 0.842736 13.9568 0.598529C13.9926 0.419328 14.0574 0.257681 14.183 0.118795C14.3896 0.172227 14.5951 0.227782 14.8015 0.278128C15.3112 0.402546 15.8273 0.48607 16.3492 0.502274C17.0247 0.523107 17.7011 0.545483 18.3763 0.526964C19.0213 0.509218 19.6655 0.442861 20.3097 0.392323C20.7764 0.355672 21.2427 0.31092 21.7091 0.267518C22.205 0.221416 22.7002 0.168177 23.1964 0.126897C23.6395 0.0900534 24.0833 0.0508953 24.5273 0.0385499C25.3214 0.0161739 26.1168 -0.015654 26.9104 0.00884385C28.2011 0.0485806 29.472 0.247264 30.6882 0.746095C32.5748 1.5198 33.9534 2.91811 34.9128 4.81872C35.4563 5.89547 35.7824 7.05112 35.9183 8.26907C36.08 9.71695 35.9903 11.1413 35.5564 12.5292C35.1858 13.7149 34.5792 14.7516 33.8166 15.684C33.0081 16.6728 32.0707 17.4945 31.0282 18.1776C30.9934 18.2007 30.9568 18.2208 30.9046 18.2521Z" fill="white"/>
<path d="M12.1873 27.8156C12.2127 27.5218 12.2371 27.2298 12.2637 26.9379C12.3176 26.3436 12.3727 25.7495 12.4277 25.1552C12.4952 24.4268 12.5632 23.6986 12.6311 22.9702C12.6816 22.4272 12.7187 21.8823 12.7857 21.3416C12.9078 20.3544 13.188 19.4277 13.7419 18.6162C14.1915 17.9572 14.772 17.4675 15.4343 17.0842C16.1178 16.6887 16.8459 16.4195 17.5901 16.198C18.5104 15.9241 19.4463 15.7273 20.3836 15.5373C21.8967 15.2304 23.4114 14.932 24.9216 14.6087C25.8253 14.4153 26.6734 14.0559 27.4262 13.4666C28.3056 12.7779 28.9019 11.8779 29.1357 10.7188C29.3033 9.88816 29.2615 9.07201 28.9518 8.28229C28.8394 7.99565 28.6871 7.73717 28.4757 7.52247C28.4595 7.50588 28.4476 7.48447 28.4191 7.44531C28.7808 7.508 29.0848 7.65538 29.3637 7.8666C29.8362 8.22462 30.1756 8.70744 30.4521 9.24678C30.8218 9.96802 31.0325 10.7491 31.1737 11.5536C31.5149 13.4963 31.1781 15.3062 30.2488 16.9956C29.8218 17.7719 29.2317 18.3789 28.547 18.8839C27.7519 19.4703 26.8811 19.8879 25.9761 20.2276C24.8994 20.6319 23.7943 20.9215 22.6767 21.1537C21.5309 21.3918 20.3832 21.6196 19.2347 21.8429C16.9287 22.2912 15.0868 23.562 13.6354 25.5307C13.1381 26.2051 12.7044 26.9254 12.3012 27.6684C12.2743 27.7178 12.2439 27.7649 12.2143 27.8125C12.2122 27.8158 12.2031 27.8141 12.1873 27.8156Z" fill="white"/>
<path d="M30.296 18.9961C33.8718 24.2519 37.4346 29.4891 41.0167 34.7544C40.9396 34.7584 40.895 34.7629 40.8507 34.7629C40.1447 34.7633 39.4384 34.7768 38.7328 34.7606C36.4925 34.7096 34.5294 33.8813 32.8522 32.268C32.3578 31.7923 31.9322 31.2502 31.5407 30.6737C29.7238 27.9982 27.9037 25.3252 26.0859 22.6505C25.9469 22.4461 25.7964 22.256 25.5793 22.1498C25.4411 22.0822 25.2942 22.0358 25.1378 21.9746C25.2823 21.9237 25.4214 21.873 25.5614 21.8257C26.5024 21.5074 27.4173 21.1207 28.2821 20.6033C28.9812 20.1851 29.6298 19.6921 30.2011 19.0844C30.2257 19.0582 30.2535 19.0354 30.296 18.9961Z" fill="white"/>
<path d="M24.2253 22.2383C23.764 22.805 23.3959 23.404 23.0019 23.9811C21.4434 26.264 19.8981 28.5578 18.3326 30.8349C16.9369 32.8653 15.0744 34.1084 12.7837 34.5976C12.2654 34.7083 11.7394 34.7594 11.2104 34.7613C10.5283 34.7636 9.84601 34.7619 9.16373 34.7619C9.11226 34.7619 9.06061 34.7619 8.97726 34.7619C9.02873 34.6797 9.06239 34.6222 9.09944 34.5677C10.3374 32.7471 11.5759 30.9267 12.814 29.1064C13.2078 28.5273 13.5862 27.9351 13.9983 27.3718C14.7371 26.362 15.5559 25.4336 16.5027 24.6464C17.0507 24.1908 17.6341 23.8011 18.2874 23.5428C18.6569 23.3966 19.0427 23.3276 19.4263 23.2485C20.7465 22.9765 22.0675 22.7095 23.3875 22.4366C23.6256 22.3874 23.8605 22.3189 24.0971 22.2603C24.1313 22.2522 24.166 22.2483 24.2253 22.2383Z" fill="white"/>
<path d="M15.1109 37.7893C15.1109 38.1691 15.1109 38.5333 15.1109 38.9235C15.0394 38.9279 14.9655 38.9362 14.8918 38.9362C13.2309 38.937 11.5701 38.9368 9.90922 38.9368C9.83317 38.9368 9.75713 38.9368 9.6882 38.9368C9.63727 39.0936 9.62783 40.4854 9.67342 40.7136C11.1676 40.7136 12.6656 40.7136 14.1582 40.7136C14.2019 40.8656 14.2108 41.6373 14.1741 41.8912C12.6788 41.8912 11.1806 41.8912 9.68892 41.8912C9.63763 42.0413 9.62587 43.5752 9.672 43.8202C10.0261 43.8497 10.3858 43.8285 10.7448 43.8323C11.1066 43.8364 11.4684 43.8333 11.8303 43.8333C12.1981 43.8333 12.5659 43.8333 12.9336 43.8333C13.2955 43.8333 13.6572 43.8333 14.0191 43.8333C14.3792 43.8333 14.7395 43.8333 15.1098 43.8333C15.1098 44.2252 15.1098 44.5943 15.1098 44.9611C14.9686 45.0007 8.60396 45.0105 8.40431 44.9735C8.36638 44.8209 8.3646 37.9644 8.40449 37.7891C10.6312 37.7893 12.8599 37.7893 15.1109 37.7893Z" fill="white"/>
<path d="M22.1907 43.0052C22.1907 41.2738 22.1907 39.5425 22.1907 37.796C22.608 37.796 23.0066 37.796 23.4028 37.796C23.4411 37.959 23.4461 44.7714 23.4064 44.9809C23.3544 44.9853 23.2972 44.9938 23.2401 44.9942C22.9435 44.9955 22.6468 44.9905 22.3505 44.9971C22.2351 44.9996 22.1526 44.9606 22.0712 44.8692C20.972 43.6348 19.8691 42.4043 18.767 41.1729C18.3832 40.7439 17.9998 40.3145 17.6156 39.8859C17.5752 39.8407 17.5308 39.7996 17.4836 39.752C17.4217 39.817 17.443 39.8909 17.4429 39.9557C17.4411 40.7202 17.4418 41.4846 17.4418 42.2491C17.4418 43.0777 17.4418 43.9064 17.4418 44.7351C17.4418 44.8109 17.4418 44.8867 17.4418 44.9905C17.0295 44.9994 16.6356 44.993 16.2471 44.9944C16.2003 44.8456 16.1889 38.0263 16.2323 37.7924C16.2806 37.7887 16.3323 37.7814 16.3839 37.7812C16.6924 37.78 17.0008 37.7866 17.3091 37.7775C17.4224 37.7742 17.4961 37.8201 17.5704 37.9037C19.0279 39.5402 20.487 41.1748 21.9462 42.8096C22.011 42.8823 22.0785 42.9522 22.1448 43.0233C22.1603 43.0174 22.1756 43.0112 22.1907 43.0052Z" fill="white"/>
<path d="M4.74161 42.2322C5.19718 42.7241 5.63975 43.1644 6.07377 43.6143C6.50512 44.0612 6.93789 44.5062 7.39559 44.9784C7.31581 44.9869 7.272 44.9958 7.22818 44.9958C6.75961 44.9968 6.29104 44.9929 5.82247 44.9989C5.71116 45.0002 5.63476 44.958 5.55854 44.8749C4.80573 44.0549 4.04829 43.2399 3.29708 42.4183C3.20144 42.3136 3.10527 42.2704 2.97009 42.2725C2.47784 42.28 1.98558 42.2754 1.49315 42.2754C1.42903 42.2754 1.36474 42.2754 1.27819 42.2754C1.26661 42.7403 1.27427 43.1876 1.27284 43.6345C1.27142 44.0768 1.27249 44.519 1.27249 44.9881C0.847728 45.0037 0.43704 44.995 0.0137064 44.9941C0.0137064 43.6937 0.0137064 42.4131 0.0137064 41.1086C0.0886846 41.1086 0.157964 41.1086 0.227421 41.1086C1.69831 41.1086 3.16938 41.1072 4.64028 41.1097C4.89941 41.1101 5.14874 41.0678 5.38222 40.9454C5.82337 40.7141 6.01891 40.2247 5.87288 39.7191C5.78133 39.4024 5.57563 39.2016 5.2987 39.0779C5.05328 38.9684 4.79504 38.939 4.53235 38.939C3.10883 38.939 1.68531 38.939 0.261794 38.939C0.185034 38.939 0.108453 38.939 0.00996635 38.939C-0.00695274 38.7444 0.00319871 38.56 0.00141776 38.3766C-0.000363201 38.1906 0.00106156 38.0045 0.00106156 37.7917C0.0767522 37.7882 0.144785 37.7824 0.212817 37.7824C1.77863 37.7819 3.34463 37.7788 4.91045 37.7857C5.13966 37.7867 5.37403 37.8121 5.59665 37.8688C6.26682 38.0399 6.80289 38.4296 7.07182 39.1341C7.49479 40.2417 7.176 41.6114 5.78044 42.0863C5.51312 42.1772 5.23725 42.2158 4.95693 42.2169C4.90012 42.2171 4.84348 42.2247 4.74161 42.2322Z" fill="white"/>
<path d="M48.7193 41.9381C47.1369 41.9381 45.5791 41.9381 43.9951 41.9381C43.9864 42.1893 43.9923 42.4376 43.9912 42.6854C43.9902 42.9424 43.991 43.1993 43.991 43.4562C43.991 43.7068 43.991 43.9572 43.991 44.2078C43.991 44.4576 43.991 44.7074 43.991 44.9525C43.8576 45.0031 42.9969 45.0174 42.7472 44.9774C42.7102 44.8372 42.7025 38.015 42.7413 37.793C43.1462 37.793 43.5531 37.793 43.9866 37.793C43.9959 38.2771 43.9896 38.7623 43.9907 39.2472C43.9918 39.7279 43.9909 40.2086 43.9909 40.6845C44.1294 40.7291 48.4429 40.7433 48.7095 40.7021C48.7127 40.6249 48.7188 40.5435 48.7188 40.4623C48.7195 39.6594 48.719 38.8564 48.7197 38.0536C48.7197 37.9718 48.7259 37.8898 48.7298 37.7951C49.1499 37.7951 49.5565 37.7951 49.9631 37.7951C50.005 37.9284 50.0157 44.7533 49.9717 44.9811C49.5688 44.9811 49.1628 44.9811 48.7362 44.9811C48.7305 44.8987 48.7202 44.8185 48.72 44.7384C48.7188 43.8905 48.7193 43.0427 48.7193 42.1947C48.7193 42.1123 48.7193 42.0303 48.7193 41.9381Z" fill="white"/>
<path d="M37.5205 41.7673C37.4492 41.8273 37.4063 41.8606 37.3662 41.8977C36.9465 42.2854 36.529 42.6758 36.1062 43.0597C36.0205 43.1374 35.9855 43.2194 35.9869 43.3398C35.9921 43.8087 35.989 44.2778 35.989 44.7469C35.989 44.8168 35.989 44.8866 35.989 44.951C35.8476 45.0031 34.9308 45.0122 34.7306 44.9655C34.7272 44.9136 34.7203 44.8573 34.7201 44.8012C34.7194 44.2036 34.7226 43.606 34.7171 43.0086C34.716 42.8863 34.7555 42.8076 34.8385 42.7296C36.5493 41.1205 38.2585 39.5092 39.9659 37.8958C40.0517 37.8146 40.1365 37.7758 40.2516 37.7774C40.6965 37.7834 41.1413 37.7795 41.5864 37.7803C41.6375 37.7803 41.6884 37.7851 41.7818 37.7897C40.6475 38.8414 39.5426 39.8659 38.4222 40.9044C39.5848 42.2624 40.7346 43.6054 41.912 44.9807C41.8101 44.9871 41.7535 44.9935 41.6968 44.9935C41.2756 44.9942 40.8542 44.9877 40.4332 44.9973C40.289 45.0006 40.1921 44.9487 40.0963 44.8349C39.2722 43.8577 38.4428 42.8859 37.6161 41.9114C37.5805 41.8697 37.5541 41.8186 37.5205 41.7673Z" fill="white"/>
<path d="M28.4716 44.9824C28.036 44.9824 27.6294 44.9824 27.2041 44.9824C27.2041 42.9821 27.2041 40.9941 27.2041 38.9779C26.7149 38.9623 26.2431 38.9727 25.7719 38.9708C25.3051 38.9689 24.8381 38.9704 24.3603 38.9704C24.3603 38.5678 24.3603 38.1867 24.3603 37.793C26.6787 37.793 28.9879 37.793 31.3115 37.793C31.3115 38.1803 31.3115 38.5615 31.3115 38.9646C30.3739 38.9646 29.4401 38.9646 28.482 38.9646C28.4613 39.3155 28.4747 39.6467 28.4723 39.9771C28.4699 40.311 28.4718 40.6451 28.4718 40.979C28.4718 41.3129 28.4718 41.647 28.4718 41.981C28.4718 42.3085 28.4718 42.636 28.4718 42.9636C28.4718 43.2975 28.4718 43.6316 28.4718 43.9655C28.4716 44.2982 28.4716 44.6308 28.4716 44.9824Z" fill="white"/>
<path d="M34.7306 42.1675C34.7306 40.697 34.7306 39.255 34.7306 37.8144C34.8654 37.7702 35.776 37.7633 35.9789 37.8059C35.9821 37.8645 35.9885 37.927 35.9887 37.9894C35.9894 38.934 35.9872 39.8786 35.9913 40.8232C35.9919 40.9505 35.9561 41.0364 35.866 41.1187C35.5306 41.4254 35.2024 41.7414 34.8708 42.0529C34.8328 42.0886 34.7904 42.1189 34.7306 42.1675Z" fill="white"/>
<path d="M25.1412 31.246C25.1412 30.6841 25.1412 30.1403 25.1412 29.5705C25.6786 29.5626 26.2087 29.569 26.7341 29.5667C26.7895 29.7148 26.7997 31.0282 26.7491 31.2458C26.2212 31.246 25.6907 31.246 25.1412 31.246Z" fill="white"/>
<path d="M25.1407 33.2614C25.1407 32.7132 25.1407 32.1756 25.1407 31.6405C25.2798 31.5944 26.5646 31.5874 26.7498 31.6295C26.7867 31.7776 26.7934 33.0519 26.7585 33.2535C26.6333 33.2967 25.3445 33.3056 25.1407 33.2614Z" fill="white"/>
<path d="M23.2233 29.582C23.7508 29.582 24.2691 29.582 24.7852 29.582C24.8285 29.7263 24.8399 30.9935 24.7978 31.2552C24.2792 31.2668 23.7563 31.2585 23.2233 31.261C23.2233 30.6902 23.2233 30.1422 23.2233 29.582Z" fill="white"/>
<path d="M23.2224 33.2626C23.2224 32.7229 23.2224 32.1808 23.2224 31.6407C23.3571 31.5996 24.5249 31.5869 24.7813 31.6218C24.8296 31.752 24.8435 33.0201 24.7993 33.2588C24.667 33.3002 23.3979 33.3052 23.2224 33.2626Z" fill="white"/>
<path d="M25.1425 29.1937C25.1425 28.5233 25.1425 27.8642 25.1425 27.2061C25.9715 27.1393 26.8506 28.2249 26.7581 29.1896C26.6224 29.233 25.3325 29.2388 25.1425 29.1937Z" fill="white"/>
<path d="M24.7945 29.21C24.2664 29.21 23.748 29.21 23.2087 29.21C23.2231 29.0939 23.2317 28.9936 23.2484 28.8948C23.3195 28.4776 23.4632 28.096 23.7195 27.7691C23.9733 27.445 24.3945 27.2116 24.7893 27.2031C24.8299 27.3443 24.8372 28.989 24.7945 29.21Z" fill="white"/>
</svg>
